<?xml version="1.0" encoding="UTF-8" standalone="no"?><svg xmlns="http://www.w3.org/2000/svg" xmlns:xlink="http://www.w3.org/1999/xlink" contentStyleType="text/css" height="327px" preserveAspectRatio="none" style="width:373px;height:327px;background:#FFFFFF;" version="1.1" viewBox="0 0 373 327" width="373px" zoomAndPan="magnify"><defs/><g><!--class Suit--><g id="elem_Suit"><rect codeLine="4" fill="#F1F1F1" height="32" id="Suit" rx="2.5" ry="2.5" style="stroke:#181818;stroke-width:0.5;" width="60" x="191.5" y="288"/><ellipse cx="206.5" cy="304" fill="#EB937F" rx="11" ry="11" style="stroke:#181818;stroke-width:1.0;"/><path d="M205.2969,304.875 L206.75,304.875 L206.75,304.9844 C206.75,305.3906 206.7813,305.5469 206.8594,305.7031 C207.0156,305.9531 207.2969,306.1094 207.5938,306.1094 C207.8438,306.1094 208.1094,305.9688 208.2656,305.75 C208.3906,305.5938 208.4219,305.4375 208.4219,304.9844 L208.4219,303.0625 C208.4219,302.9063 208.4219,302.8594 208.4063,302.7031 C208.3438,302.2344 208.0313,301.9219 207.5781,301.9219 C207.3281,301.9219 207.0625,302.0625 206.8906,302.2813 C206.7813,302.4531 206.75,302.6094 206.75,303.0625 L206.75,303.1875 L205.2969,303.1875 L205.2969,300.7813 L209.2813,300.7813 L209.2813,301.6406 C209.2813,302.0469 209.3125,302.2188 209.3906,302.375 C209.5625,302.625 209.8438,302.7813 210.125,302.7813 C210.3906,302.7813 210.6563,302.6406 210.8281,302.4219 C210.9375,302.25 210.9688,302.1094 210.9688,301.6406 L210.9688,299.0938 L203.3438,299.0938 C202.9063,299.0938 202.7813,299.1094 202.625,299.2031 C202.375,299.3594 202.2188,299.6563 202.2188,299.9375 C202.2188,300.2188 202.3594,300.4688 202.5781,300.6406 C202.7344,300.75 202.9219,300.7813 203.3438,300.7813 L203.5938,300.7813 L203.5938,307.2969 L203.3438,307.2969 C202.9375,307.2969 202.7813,307.3125 202.625,307.4219 C202.375,307.5938 202.2188,307.8594 202.2188,308.1563 C202.2188,308.4219 202.3594,308.6719 202.5781,308.8281 C202.7188,308.9531 202.9531,309 203.3438,309 L211.3438,309 L211.3438,306.4219 C211.3438,305.9844 211.3125,305.8438 211.2344,305.6875 C211.0625,305.4375 210.7813,305.2813 210.5,305.2813 C210.2344,305.2813 209.9688,305.3906 209.7969,305.6406 C209.6875,305.7969 209.6563,305.9375 209.6563,306.4219 L209.6563,307.2969 L205.2969,307.2969 L205.2969,304.875 Z " fill="#000000"/><text fill="#000000" font-family="sans-serif" font-size="14" lengthAdjust="spacing" textLength="28" x="220.5" y="308.8467">Suit</text></g><!--class Rank--><g id="elem_Rank"><rect codeLine="5" fill="#F1F1F1" height="32" id="Rank" rx="2.5" ry="2.5" style="stroke:#181818;stroke-width:0.5;" width="68" x="286.5" y="288"/><ellipse cx="301.5" cy="304" fill="#EB937F" rx="11" ry="11" style="stroke:#181818;stroke-width:1.0;"/><path d="M300.2969,304.875 L301.75,304.875 L301.75,304.9844 C301.75,305.3906 301.7813,305.5469 301.8594,305.7031 C302.0156,305.9531 302.2969,306.1094 302.5938,306.1094 C302.8438,306.1094 303.1094,305.9688 303.2656,305.75 C303.3906,305.5938 303.4219,305.4375 303.4219,304.9844 L303.4219,303.0625 C303.4219,302.9063 303.4219,302.8594 303.4063,302.7031 C303.3438,302.2344 303.0313,301.9219 302.5781,301.9219 C302.3281,301.9219 302.0625,302.0625 301.8906,302.2813 C301.7813,302.4531 301.75,302.6094 301.75,303.0625 L301.75,303.1875 L300.2969,303.1875 L300.2969,300.7813 L304.2813,300.7813 L304.2813,301.6406 C304.2813,302.0469 304.3125,302.2188 304.3906,302.375 C304.5625,302.625 304.8438,302.7813 305.125,302.7813 C305.3906,302.7813 305.6563,302.6406 305.8281,302.4219 C305.9375,302.25 305.9688,302.1094 305.9688,301.6406 L305.9688,299.0938 L298.3438,299.0938 C297.9063,299.0938 297.7813,299.1094 297.625,299.2031 C297.375,299.3594 297.2188,299.6563 297.2188,299.9375 C297.2188,300.2188 297.3594,300.4688 297.5781,300.6406 C297.7344,300.75 297.9219,300.7813 298.3438,300.7813 L298.5938,300.7813 L298.5938,307.2969 L298.3438,307.2969 C297.9375,307.2969 297.7813,307.3125 297.625,307.4219 C297.375,307.5938 297.2188,307.8594 297.2188,308.1563 C297.2188,308.4219 297.3594,308.6719 297.5781,308.8281 C297.7188,308.9531 297.9531,309 298.3438,309 L306.3438,309 L306.3438,306.4219 C306.3438,305.9844 306.3125,305.8438 306.2344,305.6875 C306.0625,305.4375 305.7813,305.2813 305.5,305.2813 C305.2344,305.2813 304.9688,305.3906 304.7969,305.6406 C304.6875,305.7969 304.6563,305.9375 304.6563,306.4219 L304.6563,307.2969 L300.2969,307.2969 L300.2969,304.875 Z " fill="#000000"/><text fill="#000000" font-family="sans-serif" font-size="14" lengthAdjust="spacing" textLength="36" x="315.5" y="308.8467">Rank</text></g><!--class Comparable--><g id="elem_Comparable"><rect codeLine="8" fill="#F1F1F1" height="64.5625" id="Comparable" rx="2.5" ry="2.5" style="stroke:#181818;stroke-width:0.5;" width="149" x="191" y="10"/><ellipse cx="214.1" cy="30.1328" fill="#B4A7E5" rx="11" ry="11" style="stroke:#181818;stroke-width:1.0;"/><path d="M215.0531,26.9141 L216.7719,26.9141 C217.1625,26.9141 217.35,26.8828 217.475,26.8047 C217.7406,26.6484 217.8813,26.3672 217.8813,26.0703 C217.8813,25.8047 217.7719,25.5391 217.5375,25.3672 C217.3656,25.2578 217.225,25.2266 216.7719,25.2266 L211.6313,25.2266 C211.1938,25.2266 211.0688,25.2422 210.9125,25.3359 C210.6625,25.4922 210.5063,25.7891 210.5063,26.0703 C210.5063,26.3516 210.6469,26.6016 210.8656,26.7734 C211.0219,26.8828 211.2094,26.9141 211.6313,26.9141 L213.35,26.9141 L213.35,33.4297 L211.6313,33.4297 C211.1938,33.4297 211.0688,33.4453 210.9125,33.5547 C210.6625,33.7109 210.5063,33.9922 210.5063,34.2891 C210.5063,34.5391 210.6469,34.8047 210.8656,34.9609 C211.0219,35.0859 211.225,35.1328 211.6313,35.1328 L216.7719,35.1328 C217.5219,35.1328 217.8813,34.8516 217.8813,34.2891 C217.8813,34.0078 217.7719,33.7578 217.5375,33.5859 C217.3656,33.4609 217.225,33.4297 216.7719,33.4297 L215.0531,33.4297 L215.0531,26.9141 Z " fill="#000000"/><text fill="#000000" font-family="sans-serif" font-size="12" font-style="italic" lengthAdjust="spacing" textLength="67" x="240.4" y="26.1387">«interface»</text><text fill="#000000" font-family="sans-serif" font-size="14" font-style="italic" lengthAdjust="spacing" textLength="88" x="229.9" y="41.9639">Comparable</text><rect fill="#FFFFFF" height="15.9688" style="stroke:#181818;stroke-width:1.0;stroke-dasharray:2.0,2.0;" width="9" x="334" y="7"/><text fill="#000000" font-family="sans-serif" font-size="12" font-style="italic" lengthAdjust="spacing" textLength="7" x="335" y="19.1387">T</text><line style="stroke:#181818;stroke-width:0.5;" x1="192" x2="339" y1="50.2656" y2="50.2656"/><ellipse cx="202" cy="63.9141" fill="#84BE84" rx="3" ry="3" style="stroke:#038048;stroke-width:1.0;"/><text fill="#000000" font-family="sans-serif" font-size="14" font-style="italic" lengthAdjust="spacing" textLength="123" x="211" y="67.2607">int compareTo(T)</text></g><!--class Card--><g id="elem_Card"><rect fill="#F1F1F1" height="56.2969" id="Card" rx="2.5" ry="2.5" style="stroke:#181818;stroke-width:0.5;" width="175" x="191" y="152.5"/><ellipse cx="257.75" cy="168.5" fill="#ADD1B2" rx="11" ry="11" style="stroke:#181818;stroke-width:1.0;"/><path d="M260.0938,164.1719 C259.1563,163.7344 258.5625,163.5938 257.6875,163.5938 C255.0625,163.5938 253.0625,165.6719 253.0625,168.3906 L253.0625,169.5156 C253.0625,172.0938 255.1719,173.9844 258.0625,173.9844 C259.2813,173.9844 260.4375,173.6875 261.1875,173.1406 C261.7656,172.7344 262.0938,172.2813 262.0938,171.8906 C262.0938,171.4375 261.7031,171.0469 261.2344,171.0469 C261.0156,171.0469 260.8125,171.125 260.625,171.3125 C260.1719,171.7969 260.1719,171.7969 259.9844,171.8906 C259.5625,172.1563 258.875,172.2813 258.1094,172.2813 C256.0625,172.2813 254.7656,171.1875 254.7656,169.4844 L254.7656,168.3906 C254.7656,166.6094 256.0156,165.2969 257.75,165.2969 C258.3281,165.2969 258.9375,165.4531 259.4063,165.7031 C259.8906,165.9844 260.0625,166.2031 260.1563,166.6094 C260.2188,167.0156 260.25,167.1406 260.3906,167.2656 C260.5313,167.4063 260.7656,167.5156 260.9844,167.5156 C261.25,167.5156 261.5156,167.375 261.6875,167.1563 C261.7969,167 261.8281,166.8125 261.8281,166.3906 L261.8281,164.9688 C261.8281,164.5313 261.8125,164.4063 261.7188,164.25 C261.5625,163.9844 261.2813,163.8438 260.9844,163.8438 C260.6875,163.8438 260.4844,163.9375 260.2656,164.25 L260.0938,164.1719 Z " fill="#000000"/><text fill="#000000" font-family="sans-serif" font-size="14" lengthAdjust="spacing" textLength="33" x="278.25" y="173.3467">Card</text><line style="stroke:#181818;stroke-width:0.5;" x1="192" x2="365" y1="184.5" y2="184.5"/><ellipse cx="202" cy="198.1484" fill="#84BE84" rx="3" ry="3" style="stroke:#038048;stroke-width:1.0;"/><text fill="#000000" font-family="sans-serif" font-size="14" lengthAdjust="spacing" textLength="149" x="211" y="201.4951">int compareTo(Card)</text></g><!--class Collections--><g id="elem_Collections"><rect fill="#F1F1F1" height="56.2969" id="Collections" rx="2.5" ry="2.5" style="stroke:#181818;stroke-width:0.5;" width="122" x="30.5" y="14.5"/><ellipse cx="50" cy="30.5" fill="#ADD1B2" rx="11" ry="11" style="stroke:#181818;stroke-width:1.0;"/><path d="M52.3438,26.1719 C51.4063,25.7344 50.8125,25.5938 49.9375,25.5938 C47.3125,25.5938 45.3125,27.6719 45.3125,30.3906 L45.3125,31.5156 C45.3125,34.0938 47.4219,35.9844 50.3125,35.9844 C51.5313,35.9844 52.6875,35.6875 53.4375,35.1406 C54.0156,34.7344 54.3438,34.2813 54.3438,33.8906 C54.3438,33.4375 53.9531,33.0469 53.4844,33.0469 C53.2656,33.0469 53.0625,33.125 52.875,33.3125 C52.4219,33.7969 52.4219,33.7969 52.2344,33.8906 C51.8125,34.1563 51.125,34.2813 50.3594,34.2813 C48.3125,34.2813 47.0156,33.1875 47.0156,31.4844 L47.0156,30.3906 C47.0156,28.6094 48.2656,27.2969 50,27.2969 C50.5781,27.2969 51.1875,27.4531 51.6563,27.7031 C52.1406,27.9844 52.3125,28.2031 52.4063,28.6094 C52.4688,29.0156 52.5,29.1406 52.6406,29.2656 C52.7813,29.4063 53.0156,29.5156 53.2344,29.5156 C53.5,29.5156 53.7656,29.375 53.9375,29.1563 C54.0469,29 54.0781,28.8125 54.0781,28.3906 L54.0781,26.9688 C54.0781,26.5313 54.0625,26.4063 53.9688,26.25 C53.8125,25.9844 53.5313,25.8438 53.2344,25.8438 C52.9375,25.8438 52.7344,25.9375 52.5156,26.25 L52.3438,26.1719 Z " fill="#000000"/><text fill="#000000" font-family="sans-serif" font-size="14" lengthAdjust="spacing" textLength="80" x="65" y="35.3467">Collections</text><line style="stroke:#181818;stroke-width:0.5;" x1="31.5" x2="151.5" y1="46.5" y2="46.5"/><ellipse cx="41.5" cy="60.1484" fill="#84BE84" rx="3" ry="3" style="stroke:#038048;stroke-width:1.0;"/><text fill="#000000" font-family="sans-serif" font-size="14" lengthAdjust="spacing" text-decoration="underline" textLength="96" x="50.5" y="63.4951">sort(List&lt;T&gt;)</text></g><!--class Deck--><g id="elem_Deck"><rect fill="#F1F1F1" height="88.8906" id="Deck" rx="2.5" ry="2.5" style="stroke:#181818;stroke-width:0.5;" width="119" x="7" y="136"/><ellipse cx="44.5" cy="152" fill="#ADD1B2" rx="11" ry="11" style="stroke:#181818;stroke-width:1.0;"/><path d="M46.8438,147.6719 C45.9063,147.2344 45.3125,147.0938 44.4375,147.0938 C41.8125,147.0938 39.8125,149.1719 39.8125,151.8906 L39.8125,153.0156 C39.8125,155.5938 41.9219,157.4844 44.8125,157.4844 C46.0313,157.4844 47.1875,157.1875 47.9375,156.6406 C48.5156,156.2344 48.8438,155.7813 48.8438,155.3906 C48.8438,154.9375 48.4531,154.5469 47.9844,154.5469 C47.7656,154.5469 47.5625,154.625 47.375,154.8125 C46.9219,155.2969 46.9219,155.2969 46.7344,155.3906 C46.3125,155.6563 45.625,155.7813 44.8594,155.7813 C42.8125,155.7813 41.5156,154.6875 41.5156,152.9844 L41.5156,151.8906 C41.5156,150.1094 42.7656,148.7969 44.5,148.7969 C45.0781,148.7969 45.6875,148.9531 46.1563,149.2031 C46.6406,149.4844 46.8125,149.7031 46.9063,150.1094 C46.9688,150.5156 47,150.6406 47.1406,150.7656 C47.2813,150.9063 47.5156,151.0156 47.7344,151.0156 C48,151.0156 48.2656,150.875 48.4375,150.6563 C48.5469,150.5 48.5781,150.3125 48.5781,149.8906 L48.5781,148.4688 C48.5781,148.0313 48.5625,147.9063 48.4688,147.75 C48.3125,147.4844 48.0313,147.3438 47.7344,147.3438 C47.4375,147.3438 47.2344,147.4375 47.0156,147.75 L46.8438,147.6719 Z " fill="#000000"/><text fill="#000000" font-family="sans-serif" font-size="14" lengthAdjust="spacing" textLength="37" x="63.5" y="156.8467">Deck</text><line style="stroke:#181818;stroke-width:0.5;" x1="8" x2="125" y1="168" y2="168"/><ellipse cx="18" cy="181.6484" fill="#84BE84" rx="3" ry="3" style="stroke:#038048;stroke-width:1.0;"/><text fill="#000000" font-family="sans-serif" font-size="14" lengthAdjust="spacing" textLength="93" x="27" y="184.9951">void shuffle()</text><ellipse cx="18" cy="197.9453" fill="#84BE84" rx="3" ry="3" style="stroke:#038048;stroke-width:1.0;"/><text fill="#000000" font-family="sans-serif" font-size="14" lengthAdjust="spacing" textLength="81" x="27" y="201.292">Card draw()</text><ellipse cx="18" cy="214.2422" fill="#84BE84" rx="3" ry="3" style="stroke:#038048;stroke-width:1.0;"/><text fill="#000000" font-family="sans-serif" font-size="14" lengthAdjust="spacing" textLength="73" x="27" y="217.5889">void sort()</text></g><!--reverse link Comparable to Card--><g id="link_Comparable_Card"><path codeLine="9" d="M270.43,95.079 C272.29,114.534 274.332,135.896 275.897,152.264 " fill="none" id="Comparable-backto-Card" style="stroke:#181818;stroke-width:1.0;stroke-dasharray:7.0,7.0;"/><polygon fill="none" points="263.45,95.618,268.515,75.043,277.387,94.286,263.45,95.618" style="stroke:#181818;stroke-width:1.0;"/></g><!--link Collections to Comparable--><g id="link_Collections_Comparable"><path codeLine="13" d="M152.672,42.5 C163.628,42.5 174.585,42.5 185.541,42.5 " fill="none" id="Collections-to-Comparable" style="stroke:#181818;stroke-width:1.0;stroke-dasharray:7.0,7.0;"/><polygon fill="#181818" points="190.575,42.5,181.575,38.5,185.575,42.5,181.575,46.5,190.575,42.5" style="stroke:#181818;stroke-width:1.0;"/></g><!--reverse link Collections to Deck--><g id="link_Collections_Deck"><path codeLine="16" d="M85.5941,75.628 C82.2941,93.58 78.1348,116.207 74.5413,135.755 " fill="none" id="Collections-backto-Deck" style="stroke:#181818;stroke-width:1.0;stroke-dasharray:7.0,7.0;"/><polygon fill="#181818" points="86.501,70.695,80.9393,78.8232,85.5967,75.6126,88.8074,80.27,86.501,70.695" style="stroke:#181818;stroke-width:1.0;"/></g><!--link Deck to Card--><g id="link_Deck_Card"><path codeLine="20" d="M138.118,180.5 C138.118,180.5 164.526,180.5 177.446,180.5 " fill="none" id="Deck-Card" style="stroke:#181818;stroke-width:1.0;"/><polygon fill="none" points="126.118,180.5,132.118,184.5,138.118,180.5,132.118,176.5,126.118,180.5" style="stroke:#181818;stroke-width:1.0;"/><polygon fill="#181818" points="190.842,180.5,181.842,176.5,185.842,180.5,181.842,184.5,190.842,180.5" style="stroke:#181818;stroke-width:1.0;"/><line style="stroke:#181818;stroke-width:1.0;" x1="185.842" x2="177.842" y1="180.5" y2="180.5"/><text fill="#000000" font-family="sans-serif" font-size="13" lengthAdjust="spacing" textLength="28" x="144.5" y="173.5669">       </text><text fill="#000000" font-family="sans-serif" font-size="13" lengthAdjust="spacing" textLength="32" x="150.9057" y="193.1348">0..52</text></g><!--link Card to Suit--><g id="link_Card_Suit"><path codeLine="22" d="M260.6116,219.631 C260.6116,219.631 241.838,259.6471 234.243,275.8373 " fill="none" id="Card-Suit" style="stroke:#181818;stroke-width:1.0;"/><polygon fill="none" points="265.708,208.767,259.5385,212.5002,260.6116,219.631,266.7811,215.8978,265.708,208.767" style="stroke:#181818;stroke-width:1.0;"/><polygon fill="#181818" points="228.686,287.6831,236.1299,281.2343,230.8097,283.1565,228.8874,277.8363,228.686,287.6831" style="stroke:#181818;stroke-width:1.0;"/><line style="stroke:#181818;stroke-width:1.0;" x1="230.8097" x2="234.207" y1="283.1565" y2="275.9139"/><text fill="#000000" font-family="sans-serif" font-size="13" lengthAdjust="spacing" textLength="8" x="221.7414" y="276.8826">1</text></g><!--link Card to Rank--><g id="link_Card_Rank"><path codeLine="23" d="M291.8467,220.1084 C291.8467,220.1084 305.281,258.9744 310.799,274.9354 " fill="none" id="Card-Rank" style="stroke:#181818;stroke-width:1.0;"/><polygon fill="none" points="287.926,208.767,286.1059,215.7446,291.8467,220.1084,293.6668,213.1308,287.926,208.767" style="stroke:#181818;stroke-width:1.0;"/><polygon fill="#181818" points="315.205,287.6831,316.0448,277.8701,313.5713,282.9575,308.4839,280.484,315.205,287.6831" style="stroke:#181818;stroke-width:1.0;"/><line style="stroke:#181818;stroke-width:1.0;" x1="313.5713" x2="310.958" y1="282.9575" y2="275.3964"/><text fill="#000000" font-family="sans-serif" font-size="13" lengthAdjust="spacing" textLength="8" x="304.126" y="276.8826">1</text></g><!--SRC=[NP1DRiCW48Ntd6B4obOLb5RgfhBO9CkkMb-0mBX6iOq5urHLwhiNZ1MdOOM-zzxyjTOWO3_I3_H8hJE1jHjgB7QHaFkA6dguCXoc7k1pihH-FzHmPZDZTY3qZT88S73zgBmwTLZL4ghg9ad93ieR4DCeVkMTZsrVU8CdkAfJ8AyqpH33e1SLQrVKPQwGJ0zIuYMBbReEDLat110FFJPbQH98aTKp1EUfUBU1uhYnmX7rUHanfM-HZ5Fkugo1q4vDqs5HRdmPp7ZrVG-pEJLOeTj9u7iXNbyuhAjmo8-pl9pR9SyppsV-ZzAv_m00]--></g></svg>