<?xml version="1.0" encoding="UTF-8" standalone="no"?><svg xmlns="http://www.w3.org/2000/svg" xmlns:xlink="http://www.w3.org/1999/xlink" contentStyleType="text/css" height="318px" preserveAspectRatio="none" style="width:373px;height:318px;background:#FFFFFF;" version="1.1" viewBox="0 0 373 318" width="373px" zoomAndPan="magnify"><defs/><g><!--class Suit--><g id="elem_Suit"><rect codeLine="4" fill="#F1F1F1" height="32" id="Suit" rx="2.5" ry="2.5" style="stroke:#181818;stroke-width:0.5;" width="60" x="191.5" y="279"/><ellipse cx="206.5" cy="295" fill="#EB937F" rx="11" ry="11" style="stroke:#181818;stroke-width:1.0;"/><path d="M205.2969,295.875 L206.75,295.875 L206.75,295.9844 C206.75,296.3906 206.7813,296.5469 206.8594,296.7031 C207.0156,296.9531 207.2969,297.1094 207.5938,297.1094 C207.8438,297.1094 208.1094,296.9688 208.2656,296.75 C208.3906,296.5938 208.4219,296.4375 208.4219,295.9844 L208.4219,294.0625 C208.4219,293.9063 208.4219,293.8594 208.4063,293.7031 C208.3438,293.2344 208.0313,292.9219 207.5781,292.9219 C207.3281,292.9219 207.0625,293.0625 206.8906,293.2813 C206.7813,293.4531 206.75,293.6094 206.75,294.0625 L206.75,294.1875 L205.2969,294.1875 L205.2969,291.7813 L209.2813,291.7813 L209.2813,292.6406 C209.2813,293.0469 209.3125,293.2188 209.3906,293.375 C209.5625,293.625 209.8438,293.7813 210.125,293.7813 C210.3906,293.7813 210.6563,293.6406 210.8281,293.4219 C210.9375,293.25 210.9688,293.1094 210.9688,292.6406 L210.9688,290.0938 L203.3438,290.0938 C202.9063,290.0938 202.7813,290.1094 202.625,290.2031 C202.375,290.3594 202.2188,290.6563 202.2188,290.9375 C202.2188,291.2188 202.3594,291.4688 202.5781,291.6406 C202.7344,291.75 202.9219,291.7813 203.3438,291.7813 L203.5938,291.7813 L203.5938,298.2969 L203.3438,298.2969 C202.9375,298.2969 202.7813,298.3125 202.625,298.4219 C202.375,298.5938 202.2188,298.8594 202.2188,299.1563 C202.2188,299.4219 202.3594,299.6719 202.5781,299.8281 C202.7188,299.9531 202.9531,300 203.3438,300 L211.3438,300 L211.3438,297.4219 C211.3438,296.9844 211.3125,296.8438 211.2344,296.6875 C211.0625,296.4375 210.7813,296.2813 210.5,296.2813 C210.2344,296.2813 209.9688,296.3906 209.7969,296.6406 C209.6875,296.7969 209.6563,296.9375 209.6563,297.4219 L209.6563,298.2969 L205.2969,298.2969 L205.2969,295.875 Z " fill="#000000"/><text fill="#000000" font-family="sans-serif" font-size="14" lengthAdjust="spacing" textLength="28" x="220.5" y="299.8467">Suit</text></g><!--class Rank--><g id="elem_Rank"><rect codeLine="5" fill="#F1F1F1" height="32" id="Rank" rx="2.5" ry="2.5" style="stroke:#181818;stroke-width:0.5;" width="68" x="286.5" y="279"/><ellipse cx="301.5" cy="295" fill="#EB937F" rx="11" ry="11" style="stroke:#181818;stroke-width:1.0;"/><path d="M300.2969,295.875 L301.75,295.875 L301.75,295.9844 C301.75,296.3906 301.7813,296.5469 301.8594,296.7031 C302.0156,296.9531 302.2969,297.1094 302.5938,297.1094 C302.8438,297.1094 303.1094,296.9688 303.2656,296.75 C303.3906,296.5938 303.4219,296.4375 303.4219,295.9844 L303.4219,294.0625 C303.4219,293.9063 303.4219,293.8594 303.4063,293.7031 C303.3438,293.2344 303.0313,292.9219 302.5781,292.9219 C302.3281,292.9219 302.0625,293.0625 301.8906,293.2813 C301.7813,293.4531 301.75,293.6094 301.75,294.0625 L301.75,294.1875 L300.2969,294.1875 L300.2969,291.7813 L304.2813,291.7813 L304.2813,292.6406 C304.2813,293.0469 304.3125,293.2188 304.3906,293.375 C304.5625,293.625 304.8438,293.7813 305.125,293.7813 C305.3906,293.7813 305.6563,293.6406 305.8281,293.4219 C305.9375,293.25 305.9688,293.1094 305.9688,292.6406 L305.9688,290.0938 L298.3438,290.0938 C297.9063,290.0938 297.7813,290.1094 297.625,290.2031 C297.375,290.3594 297.2188,290.6563 297.2188,290.9375 C297.2188,291.2188 297.3594,291.4688 297.5781,291.6406 C297.7344,291.75 297.9219,291.7813 298.3438,291.7813 L298.5938,291.7813 L298.5938,298.2969 L298.3438,298.2969 C297.9375,298.2969 297.7813,298.3125 297.625,298.4219 C297.375,298.5938 297.2188,298.8594 297.2188,299.1563 C297.2188,299.4219 297.3594,299.6719 297.5781,299.8281 C297.7188,299.9531 297.9531,300 298.3438,300 L306.3438,300 L306.3438,297.4219 C306.3438,296.9844 306.3125,296.8438 306.2344,296.6875 C306.0625,296.4375 305.7813,296.2813 305.5,296.2813 C305.2344,296.2813 304.9688,296.3906 304.7969,296.6406 C304.6875,296.7969 304.6563,296.9375 304.6563,297.4219 L304.6563,298.2969 L300.2969,298.2969 L300.2969,295.875 Z " fill="#000000"/><text fill="#000000" font-family="sans-serif" font-size="14" lengthAdjust="spacing" textLength="36" x="315.5" y="299.8467">Rank</text></g><!--class Comparable--><g id="elem_Comparable"><rect codeLine="7" fill="#F1F1F1" height="56.2969" id="Comparable" rx="2.5" ry="2.5" style="stroke:#181818;stroke-width:0.5;" width="149" x="190" y="10"/><ellipse cx="213.1" cy="26" fill="#B4A7E5" rx="11" ry="11" style="stroke:#181818;stroke-width:1.0;"/><path d="M214.0531,22.7813 L215.7719,22.7813 C216.1625,22.7813 216.35,22.75 216.475,22.6719 C216.7406,22.5156 216.8813,22.2344 216.8813,21.9375 C216.8813,21.6719 216.7719,21.4063 216.5375,21.2344 C216.3656,21.125 216.225,21.0938 215.7719,21.0938 L210.6313,21.0938 C210.1938,21.0938 210.0688,21.1094 209.9125,21.2031 C209.6625,21.3594 209.5063,21.6563 209.5063,21.9375 C209.5063,22.2188 209.6469,22.4688 209.8656,22.6406 C210.0219,22.75 210.2094,22.7813 210.6313,22.7813 L212.35,22.7813 L212.35,29.2969 L210.6313,29.2969 C210.1938,29.2969 210.0688,29.3125 209.9125,29.4219 C209.6625,29.5781 209.5063,29.8594 209.5063,30.1563 C209.5063,30.4063 209.6469,30.6719 209.8656,30.8281 C210.0219,30.9531 210.225,31 210.6313,31 L215.7719,31 C216.5219,31 216.8813,30.7188 216.8813,30.1563 C216.8813,29.875 216.7719,29.625 216.5375,29.4531 C216.3656,29.3281 216.225,29.2969 215.7719,29.2969 L214.0531,29.2969 L214.0531,22.7813 Z " fill="#000000"/><text fill="#000000" font-family="sans-serif" font-size="14" font-style="italic" lengthAdjust="spacing" textLength="88" x="228.9" y="30.8467">Comparable</text><rect fill="#FFFFFF" height="15.9688" style="stroke:#181818;stroke-width:1.0;stroke-dasharray:2.0,2.0;" width="9" x="333" y="7"/><text fill="#000000" font-family="sans-serif" font-size="12" font-style="italic" lengthAdjust="spacing" textLength="7" x="334" y="19.1387">T</text><line style="stroke:#181818;stroke-width:0.5;" x1="191" x2="338" y1="42" y2="42"/><ellipse cx="201" cy="55.6484" fill="#84BE84" rx="3" ry="3" style="stroke:#038048;stroke-width:1.0;"/><text fill="#000000" font-family="sans-serif" font-size="14" font-style="italic" lengthAdjust="spacing" textLength="123" x="210" y="58.9951">int compareTo(T)</text></g><!--class Card--><g id="elem_Card"><rect fill="#F1F1F1" height="56.2969" id="Card" rx="2.5" ry="2.5" style="stroke:#181818;stroke-width:0.5;" width="175" x="191" y="143.5"/><ellipse cx="257.75" cy="159.5" fill="#ADD1B2" rx="11" ry="11" style="stroke:#181818;stroke-width:1.0;"/><path d="M260.0938,155.1719 C259.1563,154.7344 258.5625,154.5938 257.6875,154.5938 C255.0625,154.5938 253.0625,156.6719 253.0625,159.3906 L253.0625,160.5156 C253.0625,163.0938 255.1719,164.9844 258.0625,164.9844 C259.2813,164.9844 260.4375,164.6875 261.1875,164.1406 C261.7656,163.7344 262.0938,163.2813 262.0938,162.8906 C262.0938,162.4375 261.7031,162.0469 261.2344,162.0469 C261.0156,162.0469 260.8125,162.125 260.625,162.3125 C260.1719,162.7969 260.1719,162.7969 259.9844,162.8906 C259.5625,163.1563 258.875,163.2813 258.1094,163.2813 C256.0625,163.2813 254.7656,162.1875 254.7656,160.4844 L254.7656,159.3906 C254.7656,157.6094 256.0156,156.2969 257.75,156.2969 C258.3281,156.2969 258.9375,156.4531 259.4063,156.7031 C259.8906,156.9844 260.0625,157.2031 260.1563,157.6094 C260.2188,158.0156 260.25,158.1406 260.3906,158.2656 C260.5313,158.4063 260.7656,158.5156 260.9844,158.5156 C261.25,158.5156 261.5156,158.375 261.6875,158.1563 C261.7969,158 261.8281,157.8125 261.8281,157.3906 L261.8281,155.9688 C261.8281,155.5313 261.8125,155.4063 261.7188,155.25 C261.5625,154.9844 261.2813,154.8438 260.9844,154.8438 C260.6875,154.8438 260.4844,154.9375 260.2656,155.25 L260.0938,155.1719 Z " fill="#000000"/><text fill="#000000" font-family="sans-serif" font-size="14" lengthAdjust="spacing" textLength="33" x="278.25" y="164.3467">Card</text><line style="stroke:#181818;stroke-width:0.5;" x1="192" x2="365" y1="175.5" y2="175.5"/><ellipse cx="202" cy="189.1484" fill="#84BE84" rx="3" ry="3" style="stroke:#038048;stroke-width:1.0;"/><text fill="#000000" font-family="sans-serif" font-size="14" lengthAdjust="spacing" textLength="149" x="211" y="192.4951">int compareTo(Card)</text></g><!--class Collections--><g id="elem_Collections"><rect fill="#F1F1F1" height="56.2969" id="Collections" rx="2.5" ry="2.5" style="stroke:#181818;stroke-width:0.5;" width="112" x="39.5" y="10"/><ellipse cx="54.5" cy="26" fill="#ADD1B2" rx="11" ry="11" style="stroke:#181818;stroke-width:1.0;"/><path d="M56.8438,21.6719 C55.9063,21.2344 55.3125,21.0938 54.4375,21.0938 C51.8125,21.0938 49.8125,23.1719 49.8125,25.8906 L49.8125,27.0156 C49.8125,29.5938 51.9219,31.4844 54.8125,31.4844 C56.0313,31.4844 57.1875,31.1875 57.9375,30.6406 C58.5156,30.2344 58.8438,29.7813 58.8438,29.3906 C58.8438,28.9375 58.4531,28.5469 57.9844,28.5469 C57.7656,28.5469 57.5625,28.625 57.375,28.8125 C56.9219,29.2969 56.9219,29.2969 56.7344,29.3906 C56.3125,29.6563 55.625,29.7813 54.8594,29.7813 C52.8125,29.7813 51.5156,28.6875 51.5156,26.9844 L51.5156,25.8906 C51.5156,24.1094 52.7656,22.7969 54.5,22.7969 C55.0781,22.7969 55.6875,22.9531 56.1563,23.2031 C56.6406,23.4844 56.8125,23.7031 56.9063,24.1094 C56.9688,24.5156 57,24.6406 57.1406,24.7656 C57.2813,24.9063 57.5156,25.0156 57.7344,25.0156 C58,25.0156 58.2656,24.875 58.4375,24.6563 C58.5469,24.5 58.5781,24.3125 58.5781,23.8906 L58.5781,22.4688 C58.5781,22.0313 58.5625,21.9063 58.4688,21.75 C58.3125,21.4844 58.0313,21.3438 57.7344,21.3438 C57.4375,21.3438 57.2344,21.4375 57.0156,21.75 L56.8438,21.6719 Z " fill="#000000"/><text fill="#000000" font-family="sans-serif" font-size="14" lengthAdjust="spacing" textLength="80" x="68.5" y="30.8467">Collections</text><line style="stroke:#181818;stroke-width:0.5;" x1="40.5" x2="150.5" y1="42" y2="42"/><ellipse cx="50.5" cy="55.6484" fill="#84BE84" rx="3" ry="3" style="stroke:#038048;stroke-width:1.0;"/><text fill="#000000" font-family="sans-serif" font-size="14" lengthAdjust="spacing" text-decoration="underline" textLength="65" x="59.5" y="58.9951">sort(List)</text></g><!--class Deck--><g id="elem_Deck"><rect fill="#F1F1F1" height="88.8906" id="Deck" rx="2.5" ry="2.5" style="stroke:#181818;stroke-width:0.5;" width="119" x="7" y="127"/><ellipse cx="44.5" cy="143" fill="#ADD1B2" rx="11" ry="11" style="stroke:#181818;stroke-width:1.0;"/><path d="M46.8438,138.6719 C45.9063,138.2344 45.3125,138.0938 44.4375,138.0938 C41.8125,138.0938 39.8125,140.1719 39.8125,142.8906 L39.8125,144.0156 C39.8125,146.5938 41.9219,148.4844 44.8125,148.4844 C46.0313,148.4844 47.1875,148.1875 47.9375,147.6406 C48.5156,147.2344 48.8438,146.7813 48.8438,146.3906 C48.8438,145.9375 48.4531,145.5469 47.9844,145.5469 C47.7656,145.5469 47.5625,145.625 47.375,145.8125 C46.9219,146.2969 46.9219,146.2969 46.7344,146.3906 C46.3125,146.6563 45.625,146.7813 44.8594,146.7813 C42.8125,146.7813 41.5156,145.6875 41.5156,143.9844 L41.5156,142.8906 C41.5156,141.1094 42.7656,139.7969 44.5,139.7969 C45.0781,139.7969 45.6875,139.9531 46.1563,140.2031 C46.6406,140.4844 46.8125,140.7031 46.9063,141.1094 C46.9688,141.5156 47,141.6406 47.1406,141.7656 C47.2813,141.9063 47.5156,142.0156 47.7344,142.0156 C48,142.0156 48.2656,141.875 48.4375,141.6563 C48.5469,141.5 48.5781,141.3125 48.5781,140.8906 L48.5781,139.4688 C48.5781,139.0313 48.5625,138.9063 48.4688,138.75 C48.3125,138.4844 48.0313,138.3438 47.7344,138.3438 C47.4375,138.3438 47.2344,138.4375 47.0156,138.75 L46.8438,138.6719 Z " fill="#000000"/><text fill="#000000" font-family="sans-serif" font-size="14" lengthAdjust="spacing" textLength="37" x="63.5" y="147.8467">Deck</text><line style="stroke:#181818;stroke-width:0.5;" x1="8" x2="125" y1="159" y2="159"/><ellipse cx="18" cy="172.6484" fill="#84BE84" rx="3" ry="3" style="stroke:#038048;stroke-width:1.0;"/><text fill="#000000" font-family="sans-serif" font-size="14" lengthAdjust="spacing" textLength="93" x="27" y="175.9951">void shuffle()</text><ellipse cx="18" cy="188.9453" fill="#84BE84" rx="3" ry="3" style="stroke:#038048;stroke-width:1.0;"/><text fill="#000000" font-family="sans-serif" font-size="14" lengthAdjust="spacing" textLength="81" x="27" y="192.292">Card draw()</text><ellipse cx="18" cy="205.2422" fill="#84BE84" rx="3" ry="3" style="stroke:#038048;stroke-width:1.0;"/><text fill="#000000" font-family="sans-serif" font-size="14" lengthAdjust="spacing" textLength="73" x="27" y="208.5889">void sort()</text></g><!--reverse link Comparable to Card--><g id="link_Comparable_Card"><path codeLine="8" d="M269.522,86.166 C271.563,105.339 273.849,126.809 275.603,143.288 " fill="none" id="Comparable-backto-Card" style="stroke:#181818;stroke-width:1.0;stroke-dasharray:7.0,7.0;"/><polygon fill="none" points="262.558,86.876,267.401,66.247,276.479,85.393,262.558,86.876" style="stroke:#181818;stroke-width:1.0;"/></g><!--link Collections to Comparable--><g id="link_Collections_Comparable"><path codeLine="11" d="M151.613,38 C162.703,38 173.792,38 184.882,38 " fill="none" id="Collections-to-Comparable" style="stroke:#181818;stroke-width:1.0;stroke-dasharray:7.0,7.0;"/><polygon fill="#181818" points="189.977,38,180.977,34,184.977,38,180.977,42,189.977,38" style="stroke:#181818;stroke-width:1.0;"/></g><!--reverse link Collections to Deck--><g id="link_Collections_Deck"><path codeLine="13" d="M88.3728,71.318 C84.6738,88.091 80.1026,108.819 76.0971,126.982 " fill="none" id="Collections-backto-Deck" style="stroke:#181818;stroke-width:1.0;stroke-dasharray:7.0,7.0;"/><polygon fill="#181818" points="89.4912,66.247,83.6485,74.1756,88.4154,71.1299,91.4612,75.8968,89.4912,66.247" style="stroke:#181818;stroke-width:1.0;"/></g><!--link Deck to Card--><g id="link_Deck_Card"><path codeLine="17" d="M138.118,171.5 C138.118,171.5 164.526,171.5 177.446,171.5 " fill="none" id="Deck-Card" style="stroke:#181818;stroke-width:1.0;stroke-dasharray:7.0,7.0;"/><polygon fill="none" points="126.118,171.5,132.118,175.5,138.118,171.5,132.118,167.5,126.118,171.5" style="stroke:#181818;stroke-width:1.0;"/><polygon fill="#181818" points="190.842,171.5,181.842,167.5,185.842,171.5,181.842,175.5,190.842,171.5" style="stroke:#181818;stroke-width:1.0;"/><line style="stroke:#181818;stroke-width:1.0;" x1="185.842" x2="177.842" y1="171.5" y2="171.5"/><text fill="#000000" font-family="sans-serif" font-size="13" lengthAdjust="spacing" textLength="28" x="144.5" y="164.5669">       </text><text fill="#000000" font-family="sans-serif" font-size="13" lengthAdjust="spacing" textLength="32" x="150.9057" y="184.1348">0..52</text></g><!--link Card to Suit--><g id="link_Card_Suit"><path codeLine="18" d="M260.6116,210.631 C260.6116,210.631 241.838,250.6471 234.243,266.8373 " fill="none" id="Card-Suit" style="stroke:#181818;stroke-width:1.0;"/><polygon fill="none" points="265.708,199.767,259.5385,203.5002,260.6116,210.631,266.7811,206.8978,265.708,199.767" style="stroke:#181818;stroke-width:1.0;"/><polygon fill="#181818" points="228.686,278.6831,236.1299,272.2343,230.8097,274.1565,228.8874,268.8363,228.686,278.6831" style="stroke:#181818;stroke-width:1.0;"/><line style="stroke:#181818;stroke-width:1.0;" x1="230.8097" x2="234.207" y1="274.1565" y2="266.9139"/><text fill="#000000" font-family="sans-serif" font-size="13" lengthAdjust="spacing" textLength="8" x="221.7414" y="267.8826">1</text></g><!--link Card to Rank--><g id="link_Card_Rank"><path codeLine="19" d="M291.8467,211.1084 C291.8467,211.1084 305.281,249.9744 310.799,265.9354 " fill="none" id="Card-Rank" style="stroke:#181818;stroke-width:1.0;"/><polygon fill="none" points="287.926,199.767,286.1059,206.7446,291.8467,211.1084,293.6668,204.1308,287.926,199.767" style="stroke:#181818;stroke-width:1.0;"/><polygon fill="#181818" points="315.205,278.6831,316.0448,268.8701,313.5713,273.9575,308.4839,271.484,315.205,278.6831" style="stroke:#181818;stroke-width:1.0;"/><line style="stroke:#181818;stroke-width:1.0;" x1="313.5713" x2="310.958" y1="273.9575" y2="266.3964"/><text fill="#000000" font-family="sans-serif" font-size="13" lengthAdjust="spacing" textLength="8" x="304.126" y="267.8826">1</text></g><!--SRC=[NP1DJiCm48NtFiN8gqIe5Y2nGQYRTiaASW7NdX2hJYQo9o1KSdVik2AXi_Ftdj_yTCuYO3_oD_J87TaekXMr3dqYJ1z9mm0N0Qbmc7g0zydnvlccXxEOXHiOGwiD0Xoe7tNG9u_mqkp5GGSBQXhLptuZYOth6UxWea-HWpOyGue2iwZOKDNK9I6RRgJCaqhUes57GmHrqs9LbXwHDJipGwJ0rQkBN8iZclCoNVxvPoyu__aaPo5sKzjwhEgLBpFPeB-si9Xp-1LIYfNtIZqzIhXk8Q6KB6lHRfSi3xASzJ_Af_q5]--></g></svg>